<svg xmlns="http://www.w3.org/2000/svg" width="214.032" height="60" viewBox="0 0 214.032 60">
  <g id="logo" transform="translate(-125 -26.107)">
    <path id="FontAwsome_cotton-bureau_" data-name="FontAwsome (cotton-bureau)" d="M67.924,47C65.062,58.112,56.526,64.492,43.5,64.947V59c0-5.806,3.195-9,9-9,7.5,0,12-4.5,12-12,0-7.424-4.419-11.889-11.78-11.983-3.992-8.385-17.722-7.821-21.44,0C23.918,26.111,19.5,30.576,19.5,38c0,7.516,4.508,12.025,12.024,12.025,5.806,0,9.018,3.173,9.018,9v5.952C24.281,64.371,15.006,54.685,15.006,38c0-17.156,9.841-27,27-27,13.883,0,22.964,6.435,25.971,18h3.056C67.872,15.683,57.51,8,41.978,8,23.25,8,12,19.273,12,37.978,12,56.767,23.273,68.041,41.978,68c15.517,0,25.871-7.719,28.992-21ZM53.734,29.088c5,.417,7.766,3.508,7.766,8.912,0,5.806-3.2,9-9,9-3.461,0-5.967-1.16-7.45-3.306,10.048-2,9.144-12.057,8.684-14.607ZM43.853,40.866c-.3-1.251-1.975-10.524,6.8-11.734.275,1.221,2,10.537-6.806,11.734ZM42,23c3.461,0,5.927,1.17,7.432,3.34a10.273,10.273,0,0,0-7.45,5.256A10.263,10.263,0,0,0,34.53,26.34c1.5-2.14,4.025-3.308,7.448-3.308Zm-8.652,6.135c8.851,1.279,7.126,10.5,6.833,11.734-8.759-1.19-7.137-10.518-6.8-11.734ZM31.5,47c-5.806,0-9-3.194-9-9,0-5.366,2.765-8.468,7.769-8.912-.817,4.5-.167,12.887,8.667,14.607-1.469,2.133-3.973,3.3-7.4,3.3Zm6.437,1.5A9.774,9.774,0,0,0,42,44.441,10.016,10.016,0,0,0,46.091,48.5a9.711,9.711,0,0,0-4.062,4.092,9.886,9.886,0,0,0-4.06-4.092Z" transform="translate(113 18.107)" fill="#e63946"/>
    <text id="MyClothes" transform="translate(192.032 65.895)" fill="#1d3557" font-size="28" font-family="Poppins-Regular, Poppins"><tspan x="0" y="0">MyClothes</tspan></text>
  </g>
</svg>
